<svg width="19" height="18" viewBox="0 0 19 18" fill="none" xmlns="http://www.w3.org/2000/svg">
<path d="M18.7902 2.13105C18.5093 1.84943 18.0542 1.84868 17.7723 2.12912L12.3077 7.57168L10.7284 5.99242C10.4473 5.7115 9.99196 5.71125 9.71078 5.99242L3.30549 12.3977C3.02431 12.6787 3.02431 13.1345 3.30549 13.4154C3.37221 13.4824 3.45152 13.5355 3.53885 13.5717C3.62618 13.6078 3.7198 13.6264 3.81433 13.6263C3.99832 13.6263 4.18283 13.556 4.32314 13.4154L10.2196 7.51917L11.7979 9.09721C12.0788 9.37813 12.533 9.37839 12.8146 9.0984L18.7881 3.14892C19.0697 2.86849 19.0707 2.41267 18.7902 2.13105Z" fill="currentColor"/>
<path d="M18.2563 15.8333H1.43939V0.719697C1.43939 0.322182 1.11721 0 0.719697 0C0.322182 0 0 0.322182 0 0.719697V16.553C0 16.9505 0.322182 17.2727 0.719697 17.2727H18.2563C18.6538 17.2727 18.976 16.9505 18.976 16.553C18.976 16.1555 18.6538 15.8333 18.2563 15.8333ZM18.2802 1.89521H12.8825C12.485 1.89521 12.1629 2.21739 12.1629 2.6149C12.1629 3.01242 12.485 3.3346 12.8825 3.3346H17.5606V8.01285C17.5606 8.41011 17.8828 8.73255 18.2803 8.73255C18.6778 8.73255 18.9999 8.41011 18.9999 8.01259V2.6149C18.9999 2.21739 18.6777 1.89521 18.2802 1.89521Z" fill="currentColor"/>
</svg>
