<svg width="21" height="19" viewBox="0 0 21 19" fill="none" xmlns="http://www.w3.org/2000/svg">
<path fill-rule="evenodd" clip-rule="evenodd" d="M10.7639 15.2841L6.31545 18.6848C5.3087 19.4545 3.86004 18.7355 3.85796 17.4701L3.85414 15.1541C1.78288 14.656 0.25 12.7858 0.25 10.564V4.72006C0.25 2.11409 2.35604 0 4.95588 0H15.5441C18.144 0 20.25 2.11409 20.25 4.72006V10.564C20.25 13.17 18.144 15.2841 15.5441 15.2841H10.7639ZM5.85639 16.5183L9.81816 13.4896C9.99255 13.3563 10.206 13.2841 10.4255 13.2841H15.5441C17.0377 13.2841 18.25 12.0671 18.25 10.564V4.72006C18.25 3.21696 17.0377 2 15.5441 2H4.95588C3.46232 2 2.25 3.21696 2.25 4.72006V10.564C2.25 12.0388 3.41906 13.243 4.88013 13.2831C5.42089 13.2979 5.85181 13.7401 5.8527 14.281L5.85639 16.5183Z" fill="#839099"/>
</svg>
