<svg width="15" height="19" viewBox="0 0 15 19" fill="none" xmlns="http://www.w3.org/2000/svg">
<path d="M14.2285 4.58994L9.80068 0.162171C9.69683 0.0584069 9.55606 8.29647e-05 9.40926 0L1.66046 0C0.744881 0 0 0.744881 0 1.66046V17.2318C0 18.1474 0.744881 18.8923 1.66046 18.8923H12.7302C13.6457 18.8923 14.3906 18.1474 14.3906 17.2318V4.98137C14.3906 4.83045 14.3273 4.68872 14.2285 4.58994ZM9.96274 1.88971L12.5009 4.42788H10.5162C10.211 4.42788 9.96274 4.17959 9.96274 3.8744V1.88971ZM12.7302 17.7853H1.66046C1.35526 17.7853 1.10697 17.537 1.10697 17.2318V1.66046C1.10697 1.35526 1.35526 1.10697 1.66046 1.10697H8.85577V3.8744C8.85577 4.78997 9.60065 5.53486 10.5162 5.53486H13.2837V17.2318C13.2837 17.537 13.0354 17.7853 12.7302 17.7853Z" fill="currentColor"/>
<path d="M10.5162 7.82263H3.87441C3.56874 7.82263 3.32092 8.07045 3.32092 8.37612C3.32092 8.68179 3.56874 8.9296 3.87441 8.9296H10.5162C10.8219 8.9296 11.0697 8.68179 11.0697 8.37612C11.0697 8.07045 10.8219 7.82263 10.5162 7.82263ZM10.5162 10.0366H3.87441C3.56874 10.0366 3.32092 10.2844 3.32092 10.5901C3.32092 10.8957 3.56874 11.1435 3.87441 11.1435H10.5162C10.8219 11.1435 11.0697 10.8957 11.0697 10.5901C11.0697 10.2844 10.8219 10.0366 10.5162 10.0366ZM10.5162 12.2505H3.87441C3.56874 12.2505 3.32092 12.4983 3.32092 12.804C3.32092 13.1097 3.56874 13.3575 3.87441 13.3575H10.5162C10.8219 13.3575 11.0697 13.1097 11.0697 12.804C11.0697 12.4983 10.8219 12.2505 10.5162 12.2505ZM8.30229 14.4645H3.87441C3.56874 14.4645 3.32092 14.7123 3.32092 15.0179C3.32092 15.3236 3.56874 15.5714 3.87441 15.5714H8.30229C8.60796 15.5714 8.85578 15.3236 8.85578 15.0179C8.85578 14.7123 8.60796 14.4645 8.30229 14.4645Z" fill="currentColor"/>
</svg>
