<svg width="21" height="19" viewBox="0 0 21 19" fill="none" xmlns="http://www.w3.org/2000/svg">
<path d="M19.8364 11.24C19.6271 10.8891 18.7724 9.8428 16.5622 11.1186L13.3881 12.9506C13.3211 12.9894 13.2519 13.0244 13.181 13.0555C13.1918 13.023 13.2016 12.9901 13.2105 12.957C13.3185 12.5539 13.2556 12.1175 13.038 11.7599C12.8284 11.4154 12.5014 11.1793 12.1171 11.095C11.0415 10.8591 9.97548 10.491 9.11889 10.1952C8.85218 10.1032 8.60029 10.0162 8.38426 9.9461C7.38639 9.62247 6.49899 10.015 5.76257 10.4416L3.16198 11.9484L2.93592 11.5489C2.80221 11.3126 2.58392 11.1424 2.32131 11.0696C2.05867 10.9969 1.78393 11.0304 1.54764 11.1641L0.516731 11.7476C0.0279087 12.0242 -0.144692 12.647 0.131923 13.1358L3.16282 18.4912C3.35003 18.822 3.69567 19.0079 4.05106 19.0079C4.22091 19.0079 4.39299 18.9654 4.55107 18.876L5.58197 18.2925C5.81826 18.1588 5.98847 17.9405 6.06128 17.6779C6.13409 17.4153 6.10049 17.1405 5.96678 16.9043L5.77165 16.5595L6.2102 16.3064L10.8556 17.5511C11.1287 17.6243 11.4005 17.6606 11.6678 17.6606C12.2089 17.6606 12.7318 17.5116 13.2097 17.2172L19.3775 13.4194C20.0506 13.0049 20.2694 11.9661 19.8364 11.24ZM5.14064 17.4228C5.13858 17.4308 5.13494 17.4383 5.12993 17.4449C5.12491 17.4515 5.11864 17.457 5.11146 17.4611L4.08055 18.0446C4.05118 18.0611 4.01089 18.05 3.99425 18.0207L0.963398 12.6653C0.946799 12.636 0.957945 12.5956 0.987322 12.579L2.01823 11.9956C2.02862 11.9897 2.03889 11.9878 2.04796 11.9878C2.05485 11.9878 2.0611 11.9889 2.06619 11.9903C2.07798 11.9935 2.09426 12.0013 2.10453 12.0195L5.13542 17.3748C5.14569 17.393 5.14394 17.4109 5.14064 17.4228ZM18.8766 12.6058L12.7088 16.4037C12.2171 16.7065 11.6768 16.782 11.1029 16.6283L6.2664 15.3323C6.20582 15.3161 6.14263 15.3119 6.08044 15.3201C6.01825 15.3283 5.95828 15.3486 5.90396 15.38L5.30114 15.7281L3.63261 12.7799L6.24152 11.2683C7.03753 10.8072 7.57297 10.6874 8.08957 10.855C8.297 10.9222 8.5448 11.0078 8.80712 11.0983C9.6872 11.4023 10.7825 11.7804 11.9125 12.0282C12.0394 12.056 12.1492 12.1371 12.2219 12.2565C12.3045 12.3922 12.3285 12.5575 12.2877 12.7098C12.2587 12.8181 12.1737 13.1363 11.6778 13.1092C11.0857 12.9934 9.49239 12.5414 9.22577 12.47C8.97093 12.4016 8.70904 12.553 8.64073 12.8078C8.57246 13.0626 8.72369 13.3245 8.97853 13.3928C9.23839 13.4624 10.7832 13.9006 11.3545 14.0187C11.4126 14.0328 11.7893 14.1015 11.9135 14.1213C12.6288 14.2358 13.2673 14.1235 13.8657 13.778L17.0398 11.946C18.0058 11.3884 18.7631 11.3053 19.0159 11.7293C19.1984 12.0354 19.09 12.4744 18.8766 12.6058ZM11.365 9.79137C14.0645 9.79137 16.2607 7.59517 16.2607 4.89571C16.2607 2.1962 14.0645 0 11.365 0C8.66553 0 6.46934 2.1962 6.46934 4.89571C6.46937 7.59517 8.66557 9.79137 11.365 9.79137ZM11.365 0.955313C13.5378 0.955313 15.3054 2.72295 15.3054 4.89567C15.3054 7.06838 13.5377 8.83598 11.365 8.83598C9.19233 8.83598 7.42469 7.06838 7.42469 4.89567C7.42469 2.72295 9.19233 0.955313 11.365 0.955313ZM9.53685 3.80286C9.53685 3.07882 10.1102 2.46764 10.8874 2.2868V2.05544C10.8874 1.79164 11.1012 1.57777 11.365 1.57777C11.6288 1.57777 11.8427 1.79164 11.8427 2.05544V2.28692C12.458 2.42998 12.9573 2.84325 13.1292 3.38808C13.2086 3.63969 13.069 3.90799 12.8174 3.98736C12.5659 4.0667 12.2975 3.92706 12.2181 3.67552C12.1417 3.43314 11.8241 3.18777 11.365 3.18777C10.8919 3.18777 10.4922 3.46944 10.4922 3.80286C10.4922 4.13628 10.8919 4.41795 11.365 4.41795C12.3731 4.41795 13.1932 5.12244 13.1932 5.98843C13.1932 6.71247 12.6199 7.32365 11.8427 7.50449V7.73585C11.8427 7.99965 11.6288 8.21353 11.365 8.21353C11.1012 8.21353 10.8874 7.99965 10.8874 7.73585V7.50557C10.3366 7.37978 9.88062 7.03912 9.66447 6.56805C9.55445 6.3283 9.65962 6.04472 9.89941 5.93469C10.1392 5.82463 10.4227 5.92984 10.5328 6.16959C10.65 6.42507 10.9923 6.60348 11.3651 6.60348C11.8382 6.60348 12.2379 6.32181 12.2379 5.98839C12.2379 5.65497 11.8382 5.37326 11.3651 5.37326C10.357 5.3733 9.53685 4.66881 9.53685 3.80286Z" fill="currentColor"/>
</svg>
