<svg width="19" height="19" viewBox="0 0 19 19" fill="none" xmlns="http://www.w3.org/2000/svg">
<path fill-rule="evenodd" clip-rule="evenodd" d="M1.33938 2.52186C1.24855 2.9397 1.21139 3.49378 1.21139 4.23944C1.21139 4.98345 1.24937 5.53753 1.33938 5.95702C1.42856 6.36824 1.55903 6.60689 1.7151 6.76296C1.87199 6.91902 2.10981 7.04949 2.52186 7.13868C2.9397 7.22868 3.49378 7.26667 4.23944 7.26667C4.98345 7.26667 5.53753 7.22868 5.95702 7.13868C6.36824 7.04949 6.60689 6.91902 6.76296 6.76296C6.91902 6.60606 7.04949 6.36824 7.13868 5.95619C7.22868 5.53753 7.26667 4.98345 7.26667 4.23861C7.26667 3.49378 7.22868 2.9397 7.13868 2.52104C7.04949 2.10981 6.91902 1.87117 6.76296 1.7151C6.60606 1.5582 6.36824 1.42856 5.95619 1.33938C5.53753 1.24855 4.98345 1.21139 4.23861 1.21139C3.49378 1.21139 2.9397 1.24937 2.52104 1.33938C2.10981 1.42856 1.87117 1.55903 1.7151 1.7151C1.5582 1.87199 1.42856 2.10981 1.33938 2.52186ZM2.26588 0.155242C2.81253 0.0379848 3.46983 0 4.23944 0C5.0074 0 5.6647 0.0379848 6.21135 0.155242C6.76461 0.274977 7.2452 0.485546 7.61927 0.858788C7.99251 1.23203 8.20308 1.71262 8.32199 2.26588C8.44007 2.81253 8.47806 3.46983 8.47806 4.23944C8.47806 5.0074 8.44007 5.6647 8.32199 6.21135C8.20308 6.76461 7.99251 7.2452 7.61927 7.61927C7.2452 7.99251 6.76543 8.20308 6.21135 8.32199C5.6647 8.44007 5.00822 8.47806 4.23861 8.47806C3.47066 8.47806 2.81253 8.44007 2.26588 8.32199C1.71262 8.20308 1.23203 7.99251 0.858788 7.61927C0.48472 7.2452 0.274977 6.76543 0.155242 6.21135C0.0379848 5.6647 0 5.00822 0 4.23861C0 3.47066 0.0379848 2.81253 0.155242 2.26588C0.274977 1.71262 0.485546 1.23203 0.858788 0.858788C1.23203 0.48472 1.71262 0.274977 2.26588 0.155242ZM11.028 2.52186C10.938 2.9397 10.9 3.49378 10.9 4.23944C10.9 4.98345 10.938 5.53753 11.028 5.95702C11.1172 6.36824 11.2476 6.60689 11.4037 6.76296C11.5606 6.91902 11.7984 7.04949 12.2105 7.13868C12.6291 7.22868 13.1832 7.26667 13.9281 7.26667C14.6729 7.26667 15.227 7.22868 15.6456 7.13868C16.0569 7.04949 16.2955 6.91902 16.4516 6.76296C16.6085 6.60606 16.7381 6.36824 16.8273 5.95619C16.9181 5.53753 16.9553 4.98345 16.9553 4.23861C16.9553 3.49378 16.9173 2.9397 16.8273 2.52104C16.7381 2.10981 16.6076 1.87117 16.4516 1.7151C16.2947 1.5582 16.0569 1.42856 15.6448 1.33938C15.227 1.24855 14.6729 1.21139 13.9272 1.21139C13.1832 1.21139 12.6291 1.24937 12.2097 1.33938C11.7984 1.42856 11.5598 1.55903 11.4037 1.7151C11.2476 1.87199 11.1172 2.10981 11.028 2.52186ZM11.9553 0.155242C12.502 0.0379848 13.1593 0 13.9281 0C14.696 0 15.3541 0.0379848 15.9008 0.155242C16.4541 0.274977 16.9346 0.485546 17.3079 0.858788C17.682 1.23203 17.8917 1.71262 18.0114 2.26588C18.1287 2.81253 18.1667 3.46983 18.1667 4.23944C18.1667 5.0074 18.1287 5.6647 18.0114 6.21135C17.8917 6.76461 17.6811 7.2452 17.3079 7.61927C16.9346 7.99251 16.4541 8.20308 15.9008 8.32199C15.3541 8.44007 14.6968 8.47806 13.9272 8.47806C13.1593 8.47806 12.502 8.44007 11.9553 8.32199C11.4021 8.20308 10.9215 7.99251 10.5474 7.61927C10.1742 7.2452 9.96359 6.76543 9.84468 6.21135C9.7266 5.6647 9.68862 5.00822 9.68862 4.23861C9.68862 3.47066 9.7266 2.81253 9.84468 2.26588C9.96359 1.71262 10.1742 1.23203 10.5474 0.858788C10.9215 0.48472 11.4012 0.274977 11.9553 0.155242ZM1.33938 12.2105C1.24855 12.6291 1.21139 13.1832 1.21139 13.9281C1.21139 14.6729 1.24937 15.227 1.33938 15.6456C1.42856 16.0569 1.55903 16.2955 1.7151 16.4516C1.87199 16.6085 2.10981 16.7381 2.52186 16.8273C2.9397 16.9181 3.49378 16.9553 4.23944 16.9553C4.98345 16.9553 5.53753 16.9173 5.95702 16.8273C6.36824 16.7381 6.60689 16.6076 6.76296 16.4516C6.91902 16.2947 7.04949 16.0569 7.13868 15.6448C7.22868 15.227 7.26667 14.6729 7.26667 13.9272C7.26667 13.1832 7.22868 12.6291 7.13868 12.2097C7.04949 11.7984 6.91902 11.5598 6.76296 11.4037C6.60606 11.2476 6.36824 11.1172 5.95619 11.028C5.53753 10.938 4.98345 10.9 4.23861 10.9C3.49378 10.9 2.9397 10.938 2.52104 11.028C2.10981 11.1172 1.87117 11.2476 1.7151 11.4037C1.5582 11.5606 1.42856 11.7984 1.33938 12.2105ZM2.26588 9.84468C2.81253 9.7266 3.46983 9.68862 4.23944 9.68862C5.0074 9.68862 5.6647 9.7266 6.21135 9.84468C6.76461 9.96359 7.2452 10.1742 7.61927 10.5474C7.99251 10.9215 8.20308 11.4012 8.32199 11.9553C8.44007 12.502 8.47806 13.1593 8.47806 13.9281C8.47806 14.696 8.44007 15.3541 8.32199 15.9008C8.20308 16.4541 7.99251 16.9346 7.61927 17.3079C7.2452 17.682 6.76543 17.8917 6.21135 18.0114C5.6647 18.1287 5.00822 18.1667 4.23861 18.1667C3.47066 18.1667 2.81253 18.1287 2.26588 18.0114C1.71262 17.8917 1.23203 17.6811 0.858788 17.3079C0.48472 16.9346 0.274977 16.4541 0.155242 15.9008C0.0379848 15.3541 0 14.6968 0 13.9272C0 13.1593 0.0379848 12.502 0.155242 11.9553C0.274977 11.4021 0.485546 10.9215 0.858788 10.5474C1.23203 10.1742 1.71262 9.96359 2.26588 9.84468ZM11.028 12.2105C10.938 12.6291 10.9 13.1832 10.9 13.9281C10.9 14.6729 10.938 15.227 11.028 15.6456C11.1172 16.0569 11.2476 16.2955 11.4037 16.4516C11.5606 16.6085 11.7984 16.7381 12.2105 16.8273C12.6291 16.9181 13.1832 16.9553 13.9281 16.9553C14.6729 16.9553 15.227 16.9173 15.6456 16.8273C16.0569 16.7381 16.2955 16.6076 16.4516 16.4516C16.6085 16.2947 16.7381 16.0569 16.8273 15.6448C16.9181 15.227 16.9553 14.6729 16.9553 13.9272C16.9553 13.1832 16.9173 12.6291 16.8273 12.2097C16.7381 11.7984 16.6076 11.5598 16.4516 11.4037C16.2947 11.2476 16.0569 11.1172 15.6448 11.028C15.227 10.938 14.6729 10.9 13.9272 10.9C13.1832 10.9 12.6291 10.938 12.2097 11.028C11.7984 11.1172 11.5598 11.2476 11.4037 11.4037C11.2476 11.5606 11.1172 11.7984 11.028 12.2105ZM11.9553 9.84468C12.502 9.7266 13.1593 9.68862 13.9281 9.68862C14.696 9.68862 15.3541 9.7266 15.9008 9.84468C16.4541 9.96359 16.9346 10.1742 17.3079 10.5474C17.682 10.9215 17.8917 11.4012 18.0114 11.9553C18.1287 12.502 18.1667 13.1593 18.1667 13.9281C18.1667 14.696 18.1287 15.3541 18.0114 15.9008C17.8917 16.4541 17.6811 16.9346 17.3079 17.3079C16.9346 17.682 16.4541 17.8917 15.9008 18.0114C15.3541 18.1287 14.6968 18.1667 13.9272 18.1667C13.1593 18.1667 12.502 18.1287 11.9553 18.0114C11.4021 17.8917 10.9215 17.6811 10.5474 17.3079C10.1742 16.9346 9.96359 16.4541 9.84468 15.9008C9.7266 15.3541 9.68862 14.6968 9.68862 13.9272C9.68862 13.1593 9.7266 12.502 9.84468 11.9553C9.96359 11.4021 10.1742 10.9215 10.5474 10.5474C10.9215 10.1742 11.4012 9.96359 11.9553 9.84468Z" fill="currentColor"/>
</svg>
