<svg width="18" height="17" viewBox="0 0 18 17" fill="none" xmlns="http://www.w3.org/2000/svg">
<path d="M9 14.25C6.51825 14.25 4.5 12.2318 4.5 9.75C4.5 7.26825 6.51825 5.25 9 5.25C11.4818 5.25 13.5 7.26825 13.5 9.75C13.5 12.2318 11.4818 14.25 9 14.25ZM9 6.375C7.13925 6.375 5.625 7.88925 5.625 9.75C5.625 11.6108 7.13925 13.125 9 13.125C10.8608 13.125 12.375 11.6108 12.375 9.75C12.375 7.88925 10.8608 6.375 9 6.375Z" fill="currentColor"/>
<path d="M8.06251 11.2501C7.95118 11.2501 7.84233 11.2171 7.74976 11.1553C7.65719 11.0934 7.58505 11.0055 7.54249 10.9026C7.49992 10.7997 7.48884 10.6865 7.51066 10.5774C7.53247 10.4682 7.58619 10.3679 7.66501 10.2893L9.54001 8.41432C9.59226 8.36207 9.65429 8.32062 9.72256 8.29234C9.79083 8.26407 9.86399 8.24951 9.93789 8.24951C10.0118 8.24951 10.0849 8.26407 10.1532 8.29234C10.2215 8.32062 10.2835 8.36207 10.3358 8.41432C10.388 8.46657 10.4295 8.5286 10.4577 8.59686C10.486 8.66513 10.5006 8.7383 10.5006 8.81219C10.5006 8.88608 10.486 8.95925 10.4577 9.02752C10.4295 9.09579 10.388 9.15782 10.3358 9.21007L8.46076 11.0851C8.40854 11.1375 8.34647 11.179 8.27812 11.2073C8.20977 11.2357 8.13649 11.2502 8.06251 11.2501Z" fill="currentColor"/>
<path d="M9.93755 11.2501C9.86367 11.2502 9.79049 11.2358 9.72225 11.2074C9.65402 11.1791 9.59208 11.1375 9.54005 11.0851L7.66505 9.21007C7.6128 9.15782 7.57135 9.09579 7.54308 9.02752C7.5148 8.95925 7.50024 8.88608 7.50024 8.81219C7.50024 8.7383 7.5148 8.66513 7.54308 8.59686C7.57135 8.5286 7.6128 8.46657 7.66505 8.41432C7.77057 8.30879 7.91369 8.24951 8.06292 8.24951C8.13682 8.24951 8.20999 8.26407 8.27825 8.29234C8.34652 8.32062 8.40855 8.36207 8.4608 8.41432L10.3358 10.2893C10.4147 10.368 10.4684 10.4683 10.4902 10.5776C10.512 10.6868 10.5008 10.8001 10.4582 10.903C10.4155 11.0059 10.3433 11.0938 10.2506 11.1556C10.1579 11.2174 10.0489 11.2503 9.93755 11.2501Z" fill="currentColor"/>
<path d="M15.9375 16.5H2.0625C1.51561 16.4996 0.991239 16.2822 0.604531 15.8955C0.217823 15.5088 0.000397303 14.9844 0 14.4375L0 2.0625C0.000397303 1.51561 0.217823 0.991239 0.604531 0.604531C0.991239 0.217823 1.51561 0.000397303 2.0625 0H15.9375C16.4844 0.000397303 17.0088 0.217823 17.3955 0.604531C17.7822 0.991239 17.9996 1.51561 18 2.0625V14.4375C17.9996 14.9844 17.7822 15.5088 17.3955 15.8955C17.0088 16.2822 16.4844 16.4996 15.9375 16.5ZM2.0625 1.125C1.54575 1.125 1.125 1.54575 1.125 2.0625V14.4375C1.125 14.9543 1.54575 15.375 2.0625 15.375H15.9375C16.4543 15.375 16.875 14.9543 16.875 14.4375V2.0625C16.875 1.54575 16.4543 1.125 15.9375 1.125H2.0625Z" fill="currentColor"/>
<path d="M17.4375 3.75H0.5625C0.413316 3.75 0.270242 3.69074 0.164752 3.58525C0.0592632 3.47976 0 3.33668 0 3.1875C0 3.03832 0.0592632 2.89524 0.164752 2.78975C0.270242 2.68426 0.413316 2.625 0.5625 2.625H17.4375C17.5867 2.625 17.7298 2.68426 17.8352 2.78975C17.9407 2.89524 18 3.03832 18 3.1875C18 3.33668 17.9407 3.47976 17.8352 3.58525C17.7298 3.69074 17.5867 3.75 17.4375 3.75Z" fill="currentColor"/>
</svg>
