<svg width="23" height="20" viewBox="0 0 23 20" fill="none" xmlns="http://www.w3.org/2000/svg">
<path fill-rule="evenodd" clip-rule="evenodd" d="M11.375 2.12905L11.5965 1.9013C14.0621 -0.633767 18.0715 -0.633767 20.5371 1.9013C22.9876 4.42082 22.9876 8.49457 20.5371 11.0141L12.8087 18.9602C12.0386 19.752 10.7724 19.7696 9.98056 18.9994C9.96074 18.98 9.96074 18.98 9.94129 18.9602L2.21287 11.0141C-0.237625 8.49457 -0.237625 4.42082 2.21287 1.9013C4.6785 -0.633767 8.68787 -0.633767 11.1535 1.9013L11.375 2.12905ZM19.1034 9.61964C20.7989 7.87644 20.7989 5.03895 19.1034 3.29574C17.4231 1.56809 14.7105 1.56809 13.0302 3.29574L12.0919 4.26053C11.6992 4.66424 11.0508 4.66424 10.6581 4.26053L9.71978 3.29574C8.03945 1.56809 5.32692 1.56809 3.64659 3.29574C1.95114 5.03895 1.95114 7.87644 3.64659 9.61964L11.375 17.5657L19.1034 9.61964Z" fill="#92929D"/>
</svg>
