<svg width="20" height="20" viewBox="0 0 20 20" fill="none" xmlns="http://www.w3.org/2000/svg">
<path d="M19.973 3.88305C19.784 3.4027 19.5373 2.94512 19.2417 2.52196C18.9459 2.09852 18.6009 1.70946 18.2142 1.36688C17.824 1.02129 17.3925 0.722972 16.9325 0.478363C16.7014 0.35551 16.4633 0.246464 16.2193 0.1518C16.0975 0.104498 15.9743 0.0609875 15.8499 0.0213313C15.7496 -0.0105437 15.6443 -0.00808278 15.5487 0.0381282C15.4441 0.0887922 15.3759 0.180042 15.3413 0.288714L14.2382 3.76481C13.6613 3.37107 13.032 3.06032 12.3687 2.84164C11.6967 2.62024 10.9941 2.49618 10.2873 2.46887C8.91881 2.41646 7.56196 2.73799 6.36256 3.39891C5.77721 3.72149 5.23631 4.12246 4.75581 4.58696C4.29651 5.03098 3.89323 5.53254 3.5601 6.07774C3.22991 6.61845 2.9701 7.19911 2.78698 7.80563C2.59838 8.43016 2.49291 9.07868 2.46913 9.73067C2.41831 11.1538 2.77188 12.5622 3.48885 13.7926C3.57479 13.9403 3.66588 14.0849 3.7617 14.2264C3.55553 14.3074 3.34924 14.3886 3.14295 14.4696C2.70319 14.6427 2.26327 14.8157 1.82338 14.9887C1.41811 15.148 1.01284 15.3075 0.607563 15.4669L0.289868 15.5919C0.272485 15.5988 0.254751 15.6052 0.237524 15.6126C0.0785397 15.6807 -0.0191166 15.8501 0.00314906 16.0219C0.0154928 16.1173 0.0646334 16.21 0.102173 16.2975C0.143677 16.3943 0.187531 16.4901 0.233696 16.5848C0.515777 17.1625 0.880083 17.6962 1.31526 18.1694C1.89706 18.8013 2.60479 19.3147 3.38327 19.6768C3.57615 19.7666 3.77327 19.8469 3.97393 19.9176C4.07159 19.9518 4.17596 19.9991 4.28112 19.9991C4.36807 19.9991 4.45385 19.9692 4.52221 19.9156C4.62182 19.8375 4.65249 19.729 4.68834 19.6161L5.01522 18.5863C5.16381 18.1178 5.31245 17.6496 5.46108 17.1811L5.74764 16.2779C5.75233 16.263 5.75709 16.2482 5.76182 16.2332C6.33806 16.6265 6.96665 16.937 7.6292 17.1556C8.3012 17.3772 9.00385 17.5015 9.71081 17.529C10.3987 17.5557 11.0897 17.4872 11.759 17.3266C12.4147 17.1692 13.0463 16.9246 13.637 16.5993C14.2225 16.2767 14.7633 15.8759 15.2438 15.4114C15.7029 14.9675 16.1062 14.4661 16.4393 13.9211C16.7695 13.3805 17.0294 12.8001 17.2126 12.1938C17.4014 11.5691 17.507 10.9203 17.5308 10.2682C17.5564 9.55332 17.4801 8.83839 17.304 8.145C17.0889 7.29813 16.7282 6.49507 16.2382 5.77164L19.7135 4.40477C19.8413 4.35438 19.9467 4.26989 19.9856 4.13133C20.0085 4.05 20.0039 3.9618 19.973 3.88305ZM11.3543 4.65758C11.2903 4.20822 11.1942 3.76403 11.0667 3.3284C11.509 3.39798 11.9432 3.51156 12.3629 3.66746C12.7795 3.82241 13.1795 4.01865 13.5571 4.25325C13.771 4.38632 13.9773 4.53124 14.175 4.68735C14.2565 4.76516 14.3508 4.83168 14.436 4.90602C14.5855 5.03619 14.7292 5.17283 14.8667 5.31555C14.8812 5.33051 14.9092 5.35157 14.9189 5.37063C14.9271 5.38711 14.9233 5.38653 14.914 5.40481C14.9076 5.41762 14.9011 5.43032 14.8945 5.44297C14.8815 5.46828 14.8686 5.49348 14.8553 5.51864C14.8279 5.57051 14.8 5.62214 14.7717 5.67352C14.5533 6.07055 14.3049 6.45418 14.0263 6.81168C13.4808 7.51176 12.839 8.13508 12.1011 8.63114C11.8903 8.77276 11.673 8.90444 11.4498 9.02575C11.2335 9.14371 11.0084 9.26055 10.7776 9.34739C11.0887 8.61329 11.2895 7.83403 11.3841 7.04286C11.4787 6.25106 11.4665 5.44707 11.3543 4.65758ZM7.48835 3.72868C7.99486 3.52586 8.52408 3.38516 9.06444 3.30965C9.42338 3.25947 9.78577 3.23824 10.1481 3.24618C10.1609 3.24661 10.2128 3.24098 10.2229 3.24828C10.2358 3.25789 10.2467 3.32094 10.2514 3.33586C10.2799 3.42438 10.3069 3.51321 10.3328 3.60246C10.3884 3.79549 10.4369 3.99052 10.478 4.18715C10.5566 4.56192 10.6126 4.9411 10.6417 5.32305C10.7029 6.1261 10.6489 6.93329 10.4783 7.72051C10.3851 8.15098 10.2519 8.57332 10.0836 8.98028C9.79288 8.23563 9.38534 7.53754 8.89155 6.9095C8.4019 6.28692 7.82663 5.72219 7.18791 5.2527C6.82338 4.98473 6.44448 4.73801 6.0467 4.52196C6.4931 4.19972 6.97725 3.93334 7.48835 3.72868ZM3.81999 7.26305C4.05447 6.73352 4.35668 6.23666 4.71905 5.78492C4.92515 5.52795 5.14958 5.28622 5.39057 5.06164C6.06823 5.3984 6.70268 5.82289 7.26956 6.32414C7.84342 6.83184 8.34846 7.41946 8.75452 8.06946C8.98322 8.43499 9.17857 8.82035 9.33819 9.2209C9.2278 9.17073 9.11601 9.12371 9.00295 9.07989C8.88088 9.03274 8.75393 8.99872 8.62877 8.96059C8.38709 8.88657 8.1451 8.81332 7.89987 8.75231C7.76803 8.7195 7.63542 8.68774 7.50084 8.66852C7.39147 8.65282 7.28206 8.63727 7.17264 8.62164C6.97491 8.59329 6.77545 8.55364 6.57616 8.53868C6.05847 8.49995 5.53827 8.51027 5.02252 8.5695C4.50999 8.62825 4.00307 8.732 3.50749 8.87543C3.44811 8.8925 3.38893 8.9102 3.33002 8.92856C3.42065 8.35528 3.58514 7.79387 3.81999 7.26305ZM3.7037 12.4448C3.49551 11.9085 3.3566 11.3478 3.29034 10.7764C3.25197 10.445 3.23826 10.1111 3.24932 9.7777C4.17917 9.45344 5.171 9.26864 6.1578 9.29961C6.29647 9.30407 6.43655 9.30559 6.57405 9.32528C6.67202 9.33914 6.76983 9.35317 6.86764 9.36723C7.0576 9.39422 7.24862 9.41711 7.43784 9.44871C7.69526 9.49141 7.94995 9.57168 8.1994 9.64661C8.3346 9.68723 8.46932 9.72887 8.60436 9.76973C8.73315 9.80879 8.85709 9.86176 8.97991 9.91637C8.23237 10.2144 7.52573 10.6111 6.88991 11.105C6.25834 11.5955 5.71725 12.1863 5.24303 12.8281C4.97811 13.1867 4.73706 13.5629 4.52526 13.9552C4.1881 13.4889 3.91201 12.9812 3.7037 12.4448ZM5.09104 15.7741L4.03088 19.1052C3.49802 18.8948 2.99893 18.6073 2.54956 18.252C2.10502 17.9004 1.71413 17.4826 1.39065 17.0172C1.20786 16.7543 1.04694 16.4768 0.909516 16.1876L4.25975 14.8798L4.38241 15.0202C4.38409 15.0351 4.36245 15.054 4.35143 15.0668C4.31756 15.1067 4.2776 15.1408 4.2419 15.1791C4.1642 15.2622 4.08655 15.3452 4.00905 15.4282C3.83495 15.6145 3.66069 15.8008 3.48659 15.9872C3.37795 16.1034 3.22198 16.2291 3.19194 16.3925C3.15561 16.5909 3.28151 16.7902 3.47709 16.8413C3.62452 16.8797 3.77038 16.8271 3.87249 16.7183C3.99577 16.587 4.11831 16.4552 4.24127 16.3239C4.41383 16.1391 4.58646 15.9544 4.75917 15.7698C4.81151 15.7138 4.86553 15.659 4.91604 15.6014C4.93221 15.583 4.93432 15.5757 4.95448 15.5925L5.0819 15.7097C5.10752 15.7307 5.1028 15.7445 5.09104 15.7741ZM8.63002 15.3584C8.69661 15.8015 8.79487 16.2392 8.92405 16.6682C8.48353 16.5983 8.05106 16.4846 7.63303 16.329C7.21807 16.1744 6.81956 15.9787 6.44342 15.7449C6.22921 15.6119 6.02269 15.4669 5.82483 15.3106C5.74292 15.2325 5.64846 15.1657 5.56315 15.0913C5.47886 15.0178 5.39638 14.9422 5.31581 14.8647C5.23626 14.7886 5.15883 14.7103 5.08358 14.63C5.07225 14.6179 5.06799 14.6173 5.06983 14.603C5.07077 14.5964 5.07928 14.5838 5.08264 14.577C5.09561 14.5513 5.10858 14.5255 5.1217 14.4998C5.14795 14.4487 5.17467 14.3979 5.20182 14.3472C5.41331 13.9534 5.65639 13.5773 5.92538 13.2204C6.19135 12.8676 6.47733 12.5284 6.79561 12.2217C7.1223 11.9067 7.4777 11.6228 7.85717 11.3739C8.28561 11.0931 8.74139 10.858 9.21577 10.6651C8.90709 11.3948 8.69366 12.1641 8.59124 12.95C8.4869 13.7511 8.51038 14.5606 8.63002 15.3584ZM12.5123 16.2692C11.7133 16.5891 10.8607 16.7535 10.0001 16.7536C9.94932 16.7536 9.89862 16.7529 9.8478 16.7517C9.8344 16.7514 9.78237 16.7583 9.77077 16.7494C9.76022 16.7415 9.7517 16.6934 9.74772 16.6818C9.71841 16.593 9.69039 16.5038 9.66366 16.4142C9.60764 16.2263 9.55822 16.0365 9.51549 15.8452C9.43065 15.4663 9.37295 15.0824 9.33698 14.6957C9.26296 13.9 9.31699 13.0975 9.49702 12.3189C9.59952 11.8762 9.73864 11.4428 9.91295 11.0232C10.2093 11.769 10.6201 12.466 11.1171 13.0952C11.6117 13.7213 12.1913 14.2784 12.8311 14.755C13.1881 15.0212 13.5634 15.262 13.9541 15.4756C13.5077 15.798 13.0235 16.0645 12.5123 16.2692ZM16.2943 7.54793C16.5031 8.08449 16.6425 8.64551 16.7092 9.21739C16.7479 9.5496 16.7618 9.88424 16.7507 10.2185C16.5498 10.2854 16.3466 10.3454 16.1415 10.3982C16.0387 10.4247 15.9335 10.4445 15.8314 10.4732C15.7561 10.4945 15.689 10.5378 15.6387 10.5977C15.5363 10.7195 15.5184 10.896 15.5944 11.0359C15.6698 11.1743 15.8264 11.2555 15.9829 11.237C16.0986 11.2234 16.2153 11.1861 16.3279 11.1572C16.4429 11.1278 16.5574 11.0962 16.6713 11.0625C16.5748 11.6763 16.3937 12.2763 16.1328 12.84C15.8705 13.4051 15.5309 13.931 15.1237 14.4025C14.9704 14.5799 14.8082 14.7493 14.6376 14.9101C14.6136 14.9327 14.6142 14.9385 14.5837 14.9232C14.5663 14.9146 14.5489 14.9057 14.5317 14.897C14.4889 14.8752 14.4463 14.8531 14.4039 14.8305C14.0801 14.6576 13.7676 14.4643 13.4683 14.2517C12.8872 13.8393 12.3571 13.3536 11.8982 12.8084C11.4401 12.2646 11.0536 11.6612 10.7599 11.0133C10.7243 10.9344 10.6901 10.8548 10.6574 10.7747C10.998 10.9302 11.3524 11.0524 11.713 11.1517C11.9869 11.227 12.2644 11.2884 12.5445 11.3356C12.6385 11.3515 12.7355 11.373 12.8309 11.377C12.9042 11.3797 12.9767 11.362 13.0405 11.3259C13.1042 11.2897 13.1566 11.2365 13.1918 11.1722C13.2615 11.0437 13.2519 10.883 13.1684 10.7634C13.1312 10.71 13.0812 10.6668 13.023 10.6375C12.9504 10.6012 12.8701 10.596 12.7911 10.584C12.6032 10.5553 12.4164 10.5196 12.2311 10.477C11.8215 10.3827 11.4167 10.2577 11.0325 10.0867C11.2132 10.02 11.3879 9.93332 11.5605 9.84817C11.7349 9.76183 11.9062 9.66936 12.0741 9.57094C12.4238 9.36629 12.7583 9.13618 13.0761 8.88504C13.71 8.38426 14.2709 7.79387 14.7528 7.14614C15.0161 6.79141 15.2547 6.41892 15.4667 6.03133C15.8064 6.49934 16.0846 7.00904 16.2944 7.54793H16.2943ZM15.7531 5.12313C15.7513 5.12375 15.7494 5.12453 15.7475 5.12528L15.6265 4.96004L16.5115 4.01321C16.6511 3.8611 16.6581 3.62473 16.513 3.47258C16.3575 3.30977 16.0967 3.31621 15.9432 3.47703L15.0663 4.41454L14.907 4.27993L15.9626 0.91387C15.9648 0.906839 15.9671 0.899808 15.9692 0.892777C16.5021 1.10321 17.0012 1.39071 17.4507 1.7461C17.8952 2.09766 18.2861 2.51563 18.6096 2.98102C18.7924 3.24385 18.9532 3.52127 19.0905 3.81047L15.7531 5.12313Z" fill="currentColor"/>
<path d="M14.7287 10.9139C14.6671 10.7634 14.5093 10.6641 14.3469 10.6728C14.1914 10.6811 14.0512 10.7872 13.9995 10.934C13.9459 11.0861 13.9957 11.2641 14.1211 11.3656C14.2551 11.4743 14.453 11.4807 14.5938 11.3812C14.7394 11.2784 14.7973 11.0785 14.7287 10.9139Z" fill="currentColor"/>
</svg>
