<svg width="19" height="17" viewBox="0 0 19 17" fill="none" xmlns="http://www.w3.org/2000/svg">
<path d="M17.2188 1.78125H13.3594C13.3594 1.30883 13.1717 0.855765 12.8377 0.521716C12.5036 0.187667 12.0505 0 11.5781 0H7.42188C6.94946 0 6.49639 0.187667 6.16234 0.521716C5.82829 0.855765 5.64062 1.30883 5.64062 1.78125H1.78125C1.30883 1.78125 0.855765 1.96892 0.521716 2.30297C0.187667 2.63702 0 3.09008 0 3.5625L0 15.1406C0 15.613 0.187667 16.0661 0.521716 16.4002C0.855765 16.7342 1.30883 16.9219 1.78125 16.9219H17.2188C17.6912 16.9219 18.1442 16.7342 18.4783 16.4002C18.8123 16.0661 19 15.613 19 15.1406V3.5625C19 3.09008 18.8123 2.63702 18.4783 2.30297C18.1442 1.96892 17.6912 1.78125 17.2188 1.78125ZM7.42188 1.1875H11.5781C11.7356 1.1875 11.8866 1.25006 11.998 1.36141C12.1093 1.47276 12.1719 1.62378 12.1719 1.78125H6.82812C6.82812 1.62378 6.89068 1.47276 7.00203 1.36141C7.11338 1.25006 7.2644 1.1875 7.42188 1.1875ZM17.2188 15.7344H1.78125C1.62378 15.7344 1.47276 15.6718 1.36141 15.5605C1.25006 15.4491 1.1875 15.2981 1.1875 15.1406V8.01562C1.70077 8.40219 2.32619 8.61067 2.96875 8.60938H5.9375V9.5C5.9375 9.97242 6.12517 10.4255 6.45922 10.7595C6.79326 11.0936 7.24633 11.2812 7.71875 11.2812H11.2812C11.7537 11.2812 12.2067 11.0936 12.5408 10.7595C12.8748 10.4255 13.0625 9.97242 13.0625 9.5V8.60938H16.0312C16.6738 8.61067 17.2992 8.40219 17.8125 8.01562V15.1406C17.8125 15.2981 17.7499 15.4491 17.6386 15.5605C17.5272 15.6718 17.3762 15.7344 17.2188 15.7344ZM7.125 8.60938H11.875V9.5C11.875 9.65747 11.8124 9.8085 11.7011 9.91985C11.5897 10.0312 11.4387 10.0938 11.2812 10.0938H7.71875C7.56128 10.0938 7.41025 10.0312 7.29891 9.91985C7.18756 9.8085 7.125 9.65747 7.125 9.5V8.60938ZM17.8125 5.64062C17.8125 6.11304 17.6248 6.56611 17.2908 6.90016C16.9567 7.23421 16.5037 7.42188 16.0312 7.42188H2.96875C2.49633 7.42188 2.04327 7.23421 1.70922 6.90016C1.37517 6.56611 1.1875 6.11304 1.1875 5.64062V3.5625C1.1875 3.40503 1.25006 3.25401 1.36141 3.14266C1.47276 3.03131 1.62378 2.96875 1.78125 2.96875H17.2188C17.3762 2.96875 17.5272 3.03131 17.6386 3.14266C17.7499 3.25401 17.8125 3.40503 17.8125 3.5625V5.64062Z" fill="currentColor"/>
</svg>
