<svg width="18" height="21" viewBox="0 0 18 21" fill="none" xmlns="http://www.w3.org/2000/svg">
<path d="M11.581 9.35797C12.8724 8.41616 13.7133 6.89196 13.7133 5.17484C13.7133 2.32143 11.3919 0 8.53848 0C5.68507 0 3.36364 2.32143 3.36364 5.17484C3.36364 6.89196 4.20453 8.41616 5.49594 9.35797C2.28576 10.5864 0 13.6989 0 17.3357C0 18.9051 1.27678 20.1819 2.84616 20.1819H14.2308C15.8002 20.1819 17.077 18.9051 17.077 17.3357C17.077 13.6989 14.7912 10.5864 11.581 9.35797ZM4.9161 5.17484C4.9161 3.17747 6.5411 1.55247 8.53848 1.55247C10.5359 1.55247 12.1609 3.17747 12.1609 5.17484C12.1609 7.17222 10.5359 8.79725 8.53848 8.79725C6.5411 8.79725 4.9161 7.17222 4.9161 5.17484ZM14.2308 18.6294H2.84616C2.13282 18.6294 1.55247 18.0491 1.55247 17.3357C1.55247 13.4836 4.68634 10.3496 8.53852 10.3496C12.3907 10.3496 15.5246 13.4835 15.5246 17.3357C15.5245 18.0491 14.9442 18.6294 14.2308 18.6294Z" fill="currentColor"/>
</svg>
