<svg width="17" height="22" viewBox="0 0 17 22" fill="none" xmlns="http://www.w3.org/2000/svg">
<path fill-rule="evenodd" clip-rule="evenodd" d="M3.85713 0.0476074H13.1428C15.2468 0.0476074 16.9524 1.75319 16.9524 3.85713V19.2119C16.9524 20.2639 16.0996 21.1167 15.0476 21.1167C14.615 21.1167 14.1954 20.9694 13.8576 20.6992L8.49999 16.4125L3.14236 20.6992C2.32095 21.3564 1.12229 21.2233 0.465076 20.4019C0.194837 20.0641 0.0476074 19.6445 0.0476074 19.2119V3.85713C0.0476074 1.75319 1.75319 0.0476074 3.85713 0.0476074ZM3.85713 1.95237C2.80516 1.95237 1.95237 2.80516 1.95237 3.85713V19.2119L7.31 14.9252C8.00569 14.3686 8.99429 14.3686 9.68998 14.9252L15.0476 19.2119V3.85713C15.0476 2.80516 14.1948 1.95237 13.1428 1.95237H3.85713Z" fill="#839099"/>
</svg>
