<svg width="18" height="18" viewBox="0 0 18 18" fill="none" xmlns="http://www.w3.org/2000/svg">
<path d="M13.5 1.5C15.1545 1.5 16.5 2.8455 16.5 4.5V13.5C16.5 15.1545 15.1545 16.5 13.5 16.5H4.5C2.8455 16.5 1.5 15.1545 1.5 13.5V4.5C1.5 2.8455 2.8455 1.5 4.5 1.5H13.5ZM13.5 0H4.5C3.30653 0 2.16193 0.474106 1.31802 1.31802C0.474106 2.16193 0 3.30653 0 4.5L0 13.5C0 14.6935 0.474106 15.8381 1.31802 16.682C2.16193 17.5259 3.30653 18 4.5 18H13.5C14.6935 18 15.8381 17.5259 16.682 16.682C17.5259 15.8381 18 14.6935 18 13.5V4.5C18 3.30653 17.5259 2.16193 16.682 1.31802C15.8381 0.474106 14.6935 0 13.5 0Z" fill="currentColor"/>
<path d="M5.25 13.5C5.05109 13.5 4.86032 13.421 4.71967 13.2803C4.57902 13.1397 4.5 12.9489 4.5 12.75V8.25C4.5 8.05109 4.57902 7.86032 4.71967 7.71967C4.86032 7.57902 5.05109 7.5 5.25 7.5C5.44891 7.5 5.63968 7.57902 5.78033 7.71967C5.92098 7.86032 6 8.05109 6 8.25V12.75C6 12.9489 5.92098 13.1397 5.78033 13.2803C5.63968 13.421 5.44891 13.5 5.25 13.5ZM9 13.5C8.80109 13.5 8.61032 13.421 8.46967 13.2803C8.32902 13.1397 8.25 12.9489 8.25 12.75V5.25C8.25 5.05109 8.32902 4.86032 8.46967 4.71967C8.61032 4.57902 8.80109 4.5 9 4.5C9.19891 4.5 9.38968 4.57902 9.53033 4.71967C9.67098 4.86032 9.75 5.05109 9.75 5.25V12.75C9.75 12.9489 9.67098 13.1397 9.53033 13.2803C9.38968 13.421 9.19891 13.5 9 13.5ZM12.75 13.5C12.5511 13.5 12.3603 13.421 12.2197 13.2803C12.079 13.1397 12 12.9489 12 12.75V8.25C12 8.05109 12.079 7.86032 12.2197 7.71967C12.3603 7.57902 12.5511 7.5 12.75 7.5C12.9489 7.5 13.1397 7.57902 13.2803 7.71967C13.421 7.86032 13.5 8.05109 13.5 8.25V12.75C13.5 12.9489 13.421 13.1397 13.2803 13.2803C13.1397 13.421 12.9489 13.5 12.75 13.5Z" fill="currentColor"/>
</svg>
