<svg width="21" height="21" viewBox="0 0 21 21" fill="none" xmlns="http://www.w3.org/2000/svg">
<path d="M1 19.7031H19.7031" stroke="currentColor" stroke-miterlimit="10" stroke-linecap="round" stroke-linejoin="round"/>
<path d="M10.3515 7.31599C12.0957 7.31599 13.5095 5.90211 13.5095 4.158C13.5095 2.41388 12.0957 1 10.3515 1C8.60743 1 7.19354 2.41388 7.19354 4.158C7.19354 5.90211 8.60743 7.31599 10.3515 7.31599Z" stroke="currentColor" stroke-miterlimit="10" stroke-linecap="round" stroke-linejoin="round"/>
<path d="M10.5178 3.15503V4.20772H9.67574M2.18347 19.7031V15.0079H4.51166V19.7031M6.85277 19.7031V12.6797H9.18096V19.7031M11.5221 19.7031V13.8438H13.8503V19.7031M16.1914 19.7031V10.7396H18.5196V19.7031M3.36697 12.6797L8.02335 9.18745L12.6797 11.5156L17.3361 6.85926" stroke="currentColor" stroke-miterlimit="10" stroke-linecap="round" stroke-linejoin="round"/>
<path d="M15.59 6.85925H17.3361V8.6054" stroke="currentColor" stroke-miterlimit="10" stroke-linecap="round" stroke-linejoin="round"/>
</svg>
