<svg width="20" height="20" viewBox="0 0 20 20" fill="none" xmlns="http://www.w3.org/2000/svg">
<path d="M6.53356 5.45142C7.07802 5.45142 7.51359 5.88699 7.51359 6.43146C7.51359 6.73091 7.75859 6.97592 8.05805 6.97592C8.3575 6.97592 8.60251 6.73091 8.60251 6.43146C8.60251 5.47865 7.94916 4.68918 7.07802 4.44417V4.03582C7.07802 3.73637 6.83301 3.49136 6.53356 3.49136C6.2341 3.49136 5.98909 3.73637 5.98909 4.03582V4.44417C5.11795 4.68918 4.4646 5.47865 4.4646 6.43146C4.4646 7.57483 5.39018 8.50041 6.53356 8.50041C7.07802 8.50041 7.51359 8.93598 7.51359 9.48044C7.51359 10.0249 7.07802 10.4605 6.53356 10.4605C5.98909 10.4605 5.55352 10.0249 5.55352 9.48044C5.55352 9.18099 5.30852 8.93598 5.00906 8.93598C4.70961 8.93598 4.4646 9.18099 4.4646 9.48044C4.4646 10.4333 5.11795 11.2227 5.98909 11.4677V11.8489C5.98909 12.1483 6.2341 12.3933 6.53356 12.3933C6.83301 12.3933 7.07802 12.1483 7.07802 11.8489V11.4405C7.94916 11.1955 8.60251 10.406 8.60251 9.45322C8.60251 8.30985 7.67692 7.38426 6.53356 7.38426C5.98909 7.38426 5.55352 6.9487 5.55352 6.40423C5.55352 5.88699 5.98909 5.45142 6.53356 5.45142ZM19.4645 3.08302L16.5244 0.142921C16.3339 -0.0476404 16.0072 -0.0476404 15.8166 0.142921L12.9854 3.00135C12.6315 3.35525 12.8765 3.92693 13.3666 3.92693H14.1016V19.1174C14.1016 19.3896 14.3194 19.6074 14.5916 19.6074H17.7767C18.0489 19.6074 18.2667 19.3896 18.2667 19.1174V3.92693H19.1106C19.5462 3.92693 19.764 3.38247 19.4645 3.08302ZM17.1778 3.32802V18.5185H15.1905V3.32802C15.1905 3.05579 14.9727 2.83801 14.7005 2.83801L16.1978 1.34074L17.695 2.83801C17.3956 2.83801 17.1778 3.05579 17.1778 3.32802Z" fill="currentColor"/>
<path d="M6.53354 1.42236C2.94009 1.42236 0 4.33523 0 7.92868C0 11.5221 2.91287 14.435 6.53354 14.435C6.94189 14.435 7.35024 14.4078 7.73136 14.3261V19.0357C7.73136 19.3352 7.97637 19.5802 8.27582 19.5802H11.352C11.6515 19.5802 11.8965 19.3352 11.8965 19.0357V11.631C12.6315 10.5693 13.0399 9.31706 13.0399 7.92868C13.0399 4.36246 10.127 1.42236 6.53354 1.42236ZM1.33393 9.50762H2.04173C2.34119 9.50762 2.58619 9.26261 2.58619 8.96316C2.58619 8.66371 2.34119 8.4187 2.04173 8.4187H1.11615C1.08892 8.25536 1.08892 8.09202 1.08892 7.92868C1.08892 7.76535 1.08892 7.60201 1.11615 7.43867H2.99454C3.29399 7.43867 3.539 7.19366 3.539 6.89421C3.539 6.59475 3.29399 6.34974 2.99454 6.34974H1.33393C1.98729 4.14467 4.08346 2.51129 6.53354 2.51129C9.52808 2.51129 11.9782 4.93414 11.9782 7.92868C11.9782 10.9232 9.52808 13.3461 6.53354 13.3461C4.08346 13.3733 1.98729 11.7399 1.33393 9.50762ZM8.79306 18.5185V14.0539C9.52808 13.7816 10.2087 13.3733 10.7803 12.8561V18.5185H8.79306Z" fill="currentColor"/>
<path d="M4.90021 15.5784H1.824C1.52455 15.5784 1.27954 15.8234 1.27954 16.1228V19.0629C1.27954 19.3624 1.52455 19.6074 1.824 19.6074H4.90021C5.19967 19.6074 5.44467 19.3624 5.44467 19.0629V16.1228C5.44467 15.8234 5.19967 15.5784 4.90021 15.5784ZM4.35575 18.5185H2.36846V16.6673H4.35575V18.5185Z" fill="currentColor"/>
</svg>
